<svg width="125" height="34" fill="none" xmlns="http://www.w3.org/2000/svg"><path fill-rule="evenodd" clip-rule="evenodd" d="M6.407 33.744h7.16l3.292-17.747 3.314 17.747h7.16L32.942.256h-6.917l-2.78 19.258L19.818.256H13.9l-3.365 19.213L7.759.256H.799l5.608 33.488Zm36.987-20.056V6.19h11.8V.256H36.314v33.488h17.533l.9-5.581H43.393v-8.77h9.93v-5.705h-9.93ZM71.773 6.19v20.229l-1.293 7.325h-5.742V6.19h-7.745V.256H79.696V6.19h-7.923Zm16.801 0v7.498h9.93v5.704h-9.93v8.77h5.62l-1.012 5.582H81.493V.256h18.882V6.19h-11.8ZM34.515 33.744v-7.442h-5.844v7.442h5.844Zm26.524-7.442v7.442h-5.844v-7.442h5.844Zm16.634 7.442v-7.442h-5.845v7.442h5.845Zm22.702-7.442v7.442h-5.844v-7.442h5.844ZM112.877.256h-10.704v33.488h7.048V21.692h2.726l4.72 12.052h7.535V33.4l-5.579-13.625a9.924 9.924 0 0 0 1.944-1.486c.857-.843 1.522-1.901 1.995-3.174.473-1.288.709-2.867.709-4.738 0-2.208-.421-4.063-1.263-5.566a8.051 8.051 0 0 0-3.568-3.404c-1.551-.767-3.406-1.15-5.563-1.15Zm-3.656 15.525h3.479c.798 0 1.455-.192 1.972-.575.517-.383.902-.928 1.153-1.633.266-.72.399-1.572.399-2.553 0-1.012-.126-1.878-.377-2.599-.236-.72-.598-1.273-1.086-1.656-.473-.383-1.101-.575-1.884-.575h-3.656v9.591Z" fill="#CECFDB"/></svg>