<svg width="128" height="128" fill="none" xmlns="http://www.w3.org/2000/svg"><path d="M57.067 17.241a13.866 13.866 0 0 1 13.866 0l30.095 17.375a13.867 13.867 0 0 1 6.933 12.009v34.75c0 4.954-2.643 9.532-6.933 12.009l-30.095 17.375a13.867 13.867 0 0 1-13.866 0L26.972 93.384a13.867 13.867 0 0 1-6.933-12.009v-34.75c0-4.954 2.643-9.532 6.933-12.009l30.095-17.375Z" fill="#347DFE"/><path d="M55.717 6.884a16.567 16.567 0 0 1 16.567 0l37.039 21.384a16.566 16.566 0 0 1 8.283 14.347v42.77a16.566 16.566 0 0 1-8.283 14.347l-37.04 21.384a16.564 16.564 0 0 1-16.566 0l-37.04-21.384a16.567 16.567 0 0 1-8.283-14.347v-42.77a16.567 16.567 0 0 1 8.284-14.347L55.717 6.884Z" stroke="#347DFE"/><path d="M52 53.482c0-3.087 3.349-5.01 6.016-3.455l18.03 10.518c2.646 1.543 2.646 5.367 0 6.91l-18.03 10.518C55.349 79.528 52 77.605 52 74.518V53.482Z" fill="#CECFDB"/></svg>